<mxfile host="app.diagrams.net" modified="2021-07-21T16:54:29.096Z" agent="5.0 (Windows NT 10.0; Win64; x64) AppleWebKit/537.36 (KHTML, like Gecko) Chrome/91.0.4472.164 Safari/537.36" etag="d6yuwmkkqiyCHU2viSGt" version="14.9.1" type="github">
  <diagram id="a-ANTKuEf48-FDe-s6gU" name="Page-1">
    <mxGraphModel dx="2031" dy="1007" grid="1" gridSize="10" guides="1" tooltips="1" connect="1" arrows="1" fold="1" page="1" pageScale="1" pageWidth="827" pageHeight="1169" math="0" shadow="0">
      <root>
        <mxCell id="0" />
        <mxCell id="1" parent="0" />
        <mxCell id="fLZkWp-U1goKN38Um39o-15" value="" style="group" vertex="1" connectable="0" parent="1">
          <mxGeometry x="70" y="28.94" width="1579.87" height="960" as="geometry" />
        </mxCell>
        <mxCell id="fLZkWp-U1goKN38Um39o-17" value="" style="group" vertex="1" connectable="0" parent="fLZkWp-U1goKN38Um39o-15">
          <mxGeometry x="-70.13" y="-29.25" width="1650" height="989.25" as="geometry" />
        </mxCell>
        <mxCell id="-j8zmsy3Rhea9B3Lr2TH-147" value="" style="rounded=0;whiteSpace=wrap;html=1;fontSize=16;fillColor=#eeeeee;strokeColor=#36393d;" parent="fLZkWp-U1goKN38Um39o-17" vertex="1">
          <mxGeometry x="5.684341886080802e-14" y="5.857536677922325e-14" width="1650" height="989.2499999999999" as="geometry" />
        </mxCell>
        <mxCell id="-j8zmsy3Rhea9B3Lr2TH-148" value="&lt;font size=&quot;1&quot;&gt;&lt;b style=&quot;font-size: 25px&quot;&gt;Architettura&lt;/b&gt;&lt;/font&gt;" style="rounded=1;whiteSpace=wrap;html=1;fontSize=16;fillColor=#dae8fc;strokeColor=#6c8ebf;" parent="fLZkWp-U1goKN38Um39o-17" vertex="1">
          <mxGeometry width="220" height="54.95833333333333" as="geometry" />
        </mxCell>
        <mxCell id="-j8zmsy3Rhea9B3Lr2TH-1" value="&lt;font style=&quot;font-size: 19px&quot;&gt;Model&lt;br&gt;&lt;b&gt;LoginModel&lt;/b&gt;&lt;/font&gt;" style="rounded=0;whiteSpace=wrap;html=1;fillColor=#f8cecc;strokeColor=#b85450;fontSize=16;" parent="fLZkWp-U1goKN38Um39o-15" vertex="1">
          <mxGeometry x="705.4110828025478" y="170.88068461848286" width="119.23566878980893" height="58.928332470265254" as="geometry" />
        </mxCell>
        <mxCell id="-j8zmsy3Rhea9B3Lr2TH-12" value="&lt;font style=&quot;font-size: 19px&quot;&gt;View&lt;br&gt;&lt;b&gt;LoginView&lt;/b&gt;&lt;/font&gt;" style="rounded=0;whiteSpace=wrap;html=1;fillColor=#d5e8d4;strokeColor=#82b366;" parent="fLZkWp-U1goKN38Um39o-15" vertex="1">
          <mxGeometry x="730.2529299363058" y="357.08273567923464" width="129.171974522293" height="70.71399896431831" as="geometry" />
        </mxCell>
        <mxCell id="-j8zmsy3Rhea9B3Lr2TH-17" value="&lt;font style=&quot;font-size: 19px&quot;&gt;Controller&lt;br&gt;&lt;b&gt;LoginController&lt;/b&gt;&lt;/font&gt;" style="rounded=0;whiteSpace=wrap;html=1;fillColor=#fff2cc;strokeColor=#d6b656;fontSize=17;" parent="fLZkWp-U1goKN38Um39o-15" vertex="1">
          <mxGeometry x="675.6066242038218" y="253.76682810149683" width="149.04458598726117" height="70.71399896431831" as="geometry" />
        </mxCell>
        <mxCell id="-j8zmsy3Rhea9B3Lr2TH-31" value="&lt;font style=&quot;font-size: 19px&quot;&gt;View&lt;br&gt;&lt;b&gt;OmbrelloneView&lt;/b&gt;&lt;/font&gt;" style="rounded=0;whiteSpace=wrap;html=1;fillColor=#d5e8d4;strokeColor=#82b366;" parent="fLZkWp-U1goKN38Um39o-15" vertex="1">
          <mxGeometry x="1063.1210191082803" y="589.2756716724615" width="149.04458598726117" height="70.71399896431831" as="geometry" />
        </mxCell>
        <mxCell id="-j8zmsy3Rhea9B3Lr2TH-32" value="&lt;font style=&quot;font-size: 19px&quot;&gt;View&lt;br&gt;&lt;b&gt;MagazzinoView&lt;/b&gt;&lt;/font&gt;" style="rounded=0;whiteSpace=wrap;html=1;fillColor=#d5e8d4;strokeColor=#82b366;" parent="fLZkWp-U1goKN38Um39o-15" vertex="1">
          <mxGeometry x="904.14" y="659.9934971518753" width="145.86" height="70.71399896431831" as="geometry" />
        </mxCell>
        <mxCell id="-j8zmsy3Rhea9B3Lr2TH-33" value="&lt;font style=&quot;font-size: 19px&quot;&gt;View&lt;br&gt;&lt;b&gt;RistoranteView&lt;/b&gt;&lt;/font&gt;" style="rounded=0;whiteSpace=wrap;html=1;fillColor=#d5e8d4;strokeColor=#82b366;" parent="fLZkWp-U1goKN38Um39o-15" vertex="1">
          <mxGeometry x="325.35" y="577.4900051784086" width="144.65" height="70.71399896431831" as="geometry" />
        </mxCell>
        <mxCell id="-j8zmsy3Rhea9B3Lr2TH-34" value="&lt;font style=&quot;font-size: 19px&quot;&gt;View&lt;br&gt;&lt;b&gt;CamereView&lt;/b&gt;&lt;/font&gt;" style="rounded=0;whiteSpace=wrap;html=1;fillColor=#d5e8d4;strokeColor=#82b366;" parent="fLZkWp-U1goKN38Um39o-15" vertex="1">
          <mxGeometry x="556.3694267515924" y="365.34800828545366" width="119.23566878980893" height="70.71399896431831" as="geometry" />
        </mxCell>
        <mxCell id="-j8zmsy3Rhea9B3Lr2TH-35" value="&lt;font style=&quot;font-size: 19px&quot;&gt;View&lt;br&gt;&lt;b&gt;BarView&lt;br&gt;&lt;/b&gt;&lt;/font&gt;" style="rounded=0;whiteSpace=wrap;html=1;fillColor=#d5e8d4;strokeColor=#82b366;" parent="fLZkWp-U1goKN38Um39o-15" vertex="1">
          <mxGeometry x="391.4267515923567" y="754.2750025892043" width="119.23566878980893" height="70.71399896431831" as="geometry" />
        </mxCell>
        <mxCell id="-j8zmsy3Rhea9B3Lr2TH-36" value="&lt;font style=&quot;font-size: 19px&quot;&gt;View&lt;br&gt;&lt;b&gt;HomeView&lt;/b&gt;&lt;/font&gt;" style="rounded=0;whiteSpace=wrap;html=1;fillColor=#d5e8d4;strokeColor=#82b366;" parent="fLZkWp-U1goKN38Um39o-15" vertex="1">
          <mxGeometry x="740.1910828025478" y="459.6333402378781" width="119.23566878980893" height="70.71399896431831" as="geometry" />
        </mxCell>
        <mxCell id="-j8zmsy3Rhea9B3Lr2TH-37" value="&lt;font style=&quot;font-size: 19px&quot;&gt;View&lt;br&gt;&lt;b&gt;AnagraficheView&lt;/b&gt;&lt;br&gt;&lt;/font&gt;" style="rounded=0;whiteSpace=wrap;html=1;fillColor=#d5e8d4;strokeColor=#82b366;" parent="fLZkWp-U1goKN38Um39o-15" vertex="1">
          <mxGeometry x="973.69" y="306.42350233028384" width="166.31" height="70.71399896431831" as="geometry" />
        </mxCell>
        <mxCell id="-j8zmsy3Rhea9B3Lr2TH-39" value="&lt;font style=&quot;font-size: 19px&quot;&gt;View&lt;br&gt;&lt;b&gt;LogoutView&lt;/b&gt;&lt;br&gt;&lt;/font&gt;" style="rounded=0;whiteSpace=wrap;html=1;fillColor=#d5e8d4;strokeColor=#82b366;" parent="fLZkWp-U1goKN38Um39o-15" vertex="1">
          <mxGeometry x="635.86" y="642.3149974107959" width="119.24" height="70.6336421473134" as="geometry" />
        </mxCell>
        <mxCell id="-j8zmsy3Rhea9B3Lr2TH-40" value="&lt;font style=&quot;font-size: 19px&quot;&gt;View&lt;br&gt;&lt;b&gt;MeteoView&lt;/b&gt;&lt;/font&gt;" style="rounded=0;whiteSpace=wrap;html=1;fillColor=#d5e8d4;strokeColor=#82b366;" parent="fLZkWp-U1goKN38Um39o-15" vertex="1">
          <mxGeometry x="774.968152866242" y="642.3111708957003" width="119.23566878980893" height="70.71399896431831" as="geometry" />
        </mxCell>
        <mxCell id="-j8zmsy3Rhea9B3Lr2TH-46" value="" style="endArrow=classic;html=1;fontSize=16;exitX=0.5;exitY=1;exitDx=0;exitDy=0;entryX=0.5;entryY=0;entryDx=0;entryDy=0;" parent="fLZkWp-U1goKN38Um39o-15" source="-j8zmsy3Rhea9B3Lr2TH-12" target="-j8zmsy3Rhea9B3Lr2TH-36" edge="1">
          <mxGeometry x="-10" y="47.13501294602127" width="50" height="57.39772643207655" as="geometry">
            <mxPoint x="645.7961783439491" y="483.2046732259841" as="sourcePoint" />
            <mxPoint x="695.4777070063695" y="424.27634075571893" as="targetPoint" />
          </mxGeometry>
        </mxCell>
        <mxCell id="-j8zmsy3Rhea9B3Lr2TH-47" value="" style="endArrow=classic;html=1;fontSize=16;exitX=0;exitY=0;exitDx=0;exitDy=0;entryX=1;entryY=1;entryDx=0;entryDy=0;" parent="fLZkWp-U1goKN38Um39o-15" source="-j8zmsy3Rhea9B3Lr2TH-36" target="-j8zmsy3Rhea9B3Lr2TH-34" edge="1">
          <mxGeometry x="-10" y="47.13501294602127" width="50" height="57.39772643207655" as="geometry">
            <mxPoint x="675.6050955414014" y="518.5616727081433" as="sourcePoint" />
            <mxPoint x="725.2866242038217" y="459.6333402378781" as="targetPoint" />
          </mxGeometry>
        </mxCell>
        <mxCell id="-j8zmsy3Rhea9B3Lr2TH-48" value="" style="endArrow=classic;html=1;fontSize=16;entryX=1;entryY=0.5;entryDx=0;entryDy=0;exitX=0;exitY=0.5;exitDx=0;exitDy=0;" parent="fLZkWp-U1goKN38Um39o-15" source="-j8zmsy3Rhea9B3Lr2TH-36" target="-j8zmsy3Rhea9B3Lr2TH-33" edge="1">
          <mxGeometry x="-10" y="47.13501294602127" width="50" height="57.39772643207655" as="geometry">
            <mxPoint x="735.2229299363058" y="494.9903397200373" as="sourcePoint" />
            <mxPoint x="715.3503184713376" y="494.9903397200373" as="targetPoint" />
          </mxGeometry>
        </mxCell>
        <mxCell id="-j8zmsy3Rhea9B3Lr2TH-49" value="" style="endArrow=classic;html=1;fontSize=16;exitX=0;exitY=1;exitDx=0;exitDy=0;entryX=0.5;entryY=0;entryDx=0;entryDy=0;" parent="fLZkWp-U1goKN38Um39o-15" source="-j8zmsy3Rhea9B3Lr2TH-36" target="-j8zmsy3Rhea9B3Lr2TH-35" edge="1">
          <mxGeometry x="-10" y="47.13501294602127" width="50" height="57.39772643207655" as="geometry">
            <mxPoint x="705.4140127388536" y="601.0613381665147" as="sourcePoint" />
            <mxPoint x="755.095541401274" y="542.1330056962494" as="targetPoint" />
          </mxGeometry>
        </mxCell>
        <mxCell id="-j8zmsy3Rhea9B3Lr2TH-50" value="" style="endArrow=classic;html=1;fontSize=16;exitX=1;exitY=0;exitDx=0;exitDy=0;entryX=0;entryY=1;entryDx=0;entryDy=0;" parent="fLZkWp-U1goKN38Um39o-15" source="-j8zmsy3Rhea9B3Lr2TH-36" target="-j8zmsy3Rhea9B3Lr2TH-37" edge="1">
          <mxGeometry x="-10" y="47.13501294602127" width="50" height="57.39772643207655" as="geometry">
            <mxPoint x="894.203821656051" y="518.5616727081433" as="sourcePoint" />
            <mxPoint x="943.8853503184714" y="459.6333402378781" as="targetPoint" />
          </mxGeometry>
        </mxCell>
        <mxCell id="-j8zmsy3Rhea9B3Lr2TH-51" value="" style="endArrow=classic;html=1;fontSize=16;exitX=1;exitY=0.5;exitDx=0;exitDy=0;entryX=0;entryY=0.5;entryDx=0;entryDy=0;" parent="fLZkWp-U1goKN38Um39o-15" source="-j8zmsy3Rhea9B3Lr2TH-36" target="-j8zmsy3Rhea9B3Lr2TH-31" edge="1">
          <mxGeometry x="-10" y="47.13501294602127" width="50" height="57.39772643207655" as="geometry">
            <mxPoint x="884.267515923567" y="542.1330056962494" as="sourcePoint" />
            <mxPoint x="933.9490445859873" y="483.2046732259841" as="targetPoint" />
          </mxGeometry>
        </mxCell>
        <mxCell id="-j8zmsy3Rhea9B3Lr2TH-53" value="" style="endArrow=classic;html=1;fontSize=16;exitX=1;exitY=1;exitDx=0;exitDy=0;entryX=0.5;entryY=0;entryDx=0;entryDy=0;" parent="fLZkWp-U1goKN38Um39o-15" source="-j8zmsy3Rhea9B3Lr2TH-36" target="-j8zmsy3Rhea9B3Lr2TH-32" edge="1">
          <mxGeometry x="-10" y="47.13501294602127" width="50" height="57.39772643207655" as="geometry">
            <mxPoint x="864.3949044585987" y="624.6326711546207" as="sourcePoint" />
            <mxPoint x="914.0764331210192" y="565.7043386843557" as="targetPoint" />
          </mxGeometry>
        </mxCell>
        <mxCell id="-j8zmsy3Rhea9B3Lr2TH-54" value="" style="endArrow=classic;html=1;fontSize=16;exitX=0.25;exitY=1;exitDx=0;exitDy=0;entryX=0.5;entryY=0;entryDx=0;entryDy=0;" parent="fLZkWp-U1goKN38Um39o-15" source="-j8zmsy3Rhea9B3Lr2TH-36" target="-j8zmsy3Rhea9B3Lr2TH-39" edge="1">
          <mxGeometry x="-10" y="47.13501294602127" width="50" height="57.39772643207655" as="geometry">
            <mxPoint x="745.1592356687898" y="648.2040041427267" as="sourcePoint" />
            <mxPoint x="794.8407643312103" y="589.2756716724615" as="targetPoint" />
          </mxGeometry>
        </mxCell>
        <mxCell id="-j8zmsy3Rhea9B3Lr2TH-55" value="" style="endArrow=classic;html=1;fontSize=16;exitX=0.75;exitY=1;exitDx=0;exitDy=0;entryX=0.5;entryY=0;entryDx=0;entryDy=0;" parent="fLZkWp-U1goKN38Um39o-15" source="-j8zmsy3Rhea9B3Lr2TH-36" target="-j8zmsy3Rhea9B3Lr2TH-40" edge="1">
          <mxGeometry x="-10" y="47.13501294602127" width="50" height="57.39772643207655" as="geometry">
            <mxPoint x="854.4585987261147" y="671.775337130833" as="sourcePoint" />
            <mxPoint x="904.1401273885351" y="612.8470046605676" as="targetPoint" />
          </mxGeometry>
        </mxCell>
        <mxCell id="-j8zmsy3Rhea9B3Lr2TH-56" value="&lt;font style=&quot;font-size: 19px&quot;&gt;View&lt;br&gt;&lt;b&gt;ListaPrenotazioniCamereView&lt;/b&gt;&lt;/font&gt;" style="rounded=0;whiteSpace=wrap;html=1;fillColor=#d5e8d4;strokeColor=#82b366;" parent="fLZkWp-U1goKN38Um39o-15" vertex="1">
          <mxGeometry x="220" y="400.7050077676128" width="290.66" height="58.92450595516979" as="geometry" />
        </mxCell>
        <mxCell id="-j8zmsy3Rhea9B3Lr2TH-59" style="edgeStyle=orthogonalEdgeStyle;rounded=0;orthogonalLoop=1;jettySize=auto;html=1;exitX=0;exitY=0.75;exitDx=0;exitDy=0;entryX=1;entryY=0.5;entryDx=0;entryDy=0;fontSize=16;" parent="fLZkWp-U1goKN38Um39o-15" source="-j8zmsy3Rhea9B3Lr2TH-34" target="-j8zmsy3Rhea9B3Lr2TH-56" edge="1">
          <mxGeometry x="-10" y="47.13501294602127" as="geometry" />
        </mxCell>
        <mxCell id="-j8zmsy3Rhea9B3Lr2TH-57" value="&lt;font style=&quot;font-size: 19px&quot;&gt;View&lt;br&gt;&lt;b&gt;PrenotaCamereView&lt;/b&gt;&lt;/font&gt;" style="rounded=0;whiteSpace=wrap;html=1;fillColor=#d5e8d4;strokeColor=#82b366;" parent="fLZkWp-U1goKN38Um39o-15" vertex="1">
          <mxGeometry x="310" y="306.42350233028384" width="206.62" height="58.92450595516979" as="geometry" />
        </mxCell>
        <mxCell id="-j8zmsy3Rhea9B3Lr2TH-60" value="&lt;font style=&quot;font-size: 19px&quot;&gt;Controller&lt;br&gt;&lt;b&gt;CamereController&lt;/b&gt;&lt;/font&gt;" style="rounded=0;whiteSpace=wrap;html=1;fillColor=#fff2cc;strokeColor=#d6b656;fontSize=17;" parent="fLZkWp-U1goKN38Um39o-15" vertex="1">
          <mxGeometry x="447.07006369426756" y="164.99167788655177" width="163.94904458598728" height="70.71399896431831" as="geometry" />
        </mxCell>
        <mxCell id="-j8zmsy3Rhea9B3Lr2TH-69" value="&lt;font style=&quot;font-size: 19px&quot;&gt;Model&lt;br&gt;&lt;b&gt;Model&lt;/b&gt;&lt;b&gt;Camere&lt;/b&gt;&lt;/font&gt;" style="rounded=0;whiteSpace=wrap;html=1;fillColor=#f8cecc;strokeColor=#b85450;fontSize=16;" parent="fLZkWp-U1goKN38Um39o-15" vertex="1">
          <mxGeometry x="460" y="71.62088304194513" width="128.66" height="58.92450595516979" as="geometry" />
        </mxCell>
        <mxCell id="-j8zmsy3Rhea9B3Lr2TH-77" value="" style="endArrow=none;html=1;fontSize=16;entryX=0.5;entryY=1;entryDx=0;entryDy=0;exitX=0.5;exitY=0;exitDx=0;exitDy=0;" parent="fLZkWp-U1goKN38Um39o-15" source="-j8zmsy3Rhea9B3Lr2TH-34" target="-j8zmsy3Rhea9B3Lr2TH-60" edge="1">
          <mxGeometry x="-10" y="47.13501294602127" width="50" height="57.39772643207655" as="geometry">
            <mxPoint x="546.4331210191084" y="306.41967581518844" as="sourcePoint" />
            <mxPoint x="596.1146496815287" y="247.49134334492314" as="targetPoint" />
            <Array as="points">
              <mxPoint x="586.1783439490447" y="282.8483428270823" />
            </Array>
          </mxGeometry>
        </mxCell>
        <mxCell id="-j8zmsy3Rhea9B3Lr2TH-78" value="" style="endArrow=none;html=1;fontSize=16;entryX=0.5;entryY=1;entryDx=0;entryDy=0;exitX=0.443;exitY=-0.026;exitDx=0;exitDy=0;exitPerimeter=0;" parent="fLZkWp-U1goKN38Um39o-15" source="-j8zmsy3Rhea9B3Lr2TH-60" target="-j8zmsy3Rhea9B3Lr2TH-69" edge="1">
          <mxGeometry x="-10" y="47.13501294602127" width="50" height="57.39772643207655" as="geometry">
            <mxPoint x="554.3821656050956" y="153.20601139249874" as="sourcePoint" />
            <mxPoint x="563.8216560509555" y="235.7056768508701" as="targetPoint" />
            <Array as="points" />
          </mxGeometry>
        </mxCell>
        <mxCell id="-j8zmsy3Rhea9B3Lr2TH-79" value="" style="endArrow=none;html=1;fontSize=16;exitX=0.5;exitY=0;exitDx=0;exitDy=0;entryX=0.5;entryY=1;entryDx=0;entryDy=0;" parent="fLZkWp-U1goKN38Um39o-15" source="-j8zmsy3Rhea9B3Lr2TH-57" target="-j8zmsy3Rhea9B3Lr2TH-60" edge="1">
          <mxGeometry x="-10" y="47.13501294602127" width="50" height="57.39772643207655" as="geometry">
            <mxPoint x="298.0254777070064" y="200.34867736871095" as="sourcePoint" />
            <mxPoint x="500.72611464968156" y="223.92001035681704" as="targetPoint" />
            <Array as="points" />
          </mxGeometry>
        </mxCell>
        <mxCell id="-j8zmsy3Rhea9B3Lr2TH-80" value="" style="endArrow=none;html=1;fontSize=16;exitX=0.123;exitY=-0.026;exitDx=0;exitDy=0;exitPerimeter=0;entryX=0.5;entryY=1;entryDx=0;entryDy=0;" parent="fLZkWp-U1goKN38Um39o-15" source="-j8zmsy3Rhea9B3Lr2TH-56" target="-j8zmsy3Rhea9B3Lr2TH-60" edge="1">
          <mxGeometry x="-10" y="47.13501294602127" width="50" height="57.39772643207655" as="geometry">
            <mxPoint x="198.66242038216564" y="176.77734438060483" as="sourcePoint" />
            <mxPoint x="556.3694267515924" y="259.2770098389762" as="targetPoint" />
            <Array as="points">
              <mxPoint x="307.96178343949043" y="282.8483428270823" />
            </Array>
          </mxGeometry>
        </mxCell>
        <mxCell id="-j8zmsy3Rhea9B3Lr2TH-81" value="&lt;font style=&quot;font-size: 19px&quot;&gt;View&lt;br&gt;&lt;b&gt;RicercaAnagraficheView&lt;/b&gt;&lt;br&gt;&lt;/font&gt;" style="rounded=0;whiteSpace=wrap;html=1;fillColor=#d5e8d4;strokeColor=#82b366;" parent="fLZkWp-U1goKN38Um39o-15" vertex="1">
          <mxGeometry x="1172.42" y="247.48751682982768" width="247.58" height="70.71399896431831" as="geometry" />
        </mxCell>
        <mxCell id="-j8zmsy3Rhea9B3Lr2TH-86" value="&lt;font style=&quot;font-size: 19px&quot;&gt;Controller&lt;br&gt;&lt;b&gt;AnagraficheController&lt;/b&gt;&lt;/font&gt;" style="rounded=0;whiteSpace=wrap;html=1;fillColor=#fff2cc;strokeColor=#d6b656;fontSize=17;" parent="fLZkWp-U1goKN38Um39o-15" vertex="1">
          <mxGeometry x="1260.6086624203824" y="148.42669403825454" width="211.14649681528664" height="70.71399896431831" as="geometry" />
        </mxCell>
        <mxCell id="-j8zmsy3Rhea9B3Lr2TH-87" value="&lt;font style=&quot;font-size: 19px&quot;&gt;Model&lt;br&gt;&lt;b&gt;AnagraficheModel&lt;/b&gt;&lt;/font&gt;" style="rounded=0;whiteSpace=wrap;html=1;fillColor=#f8cecc;strokeColor=#b85450;fontSize=16;" parent="fLZkWp-U1goKN38Um39o-15" vertex="1">
          <mxGeometry x="1271.7810828025479" y="71.62088304194513" width="183.82165605095543" height="58.928332470265254" as="geometry" />
        </mxCell>
        <mxCell id="-j8zmsy3Rhea9B3Lr2TH-88" value="" style="endArrow=none;html=1;fontSize=16;exitX=0.5;exitY=0;exitDx=0;exitDy=0;entryX=0.5;entryY=1;entryDx=0;entryDy=0;" parent="fLZkWp-U1goKN38Um39o-15" source="-j8zmsy3Rhea9B3Lr2TH-37" target="-j8zmsy3Rhea9B3Lr2TH-86" edge="1">
          <mxGeometry x="-10" y="47.13501294602127" width="50" height="57.39772643207655" as="geometry">
            <mxPoint x="1033.3121019108282" y="318.2053423092414" as="sourcePoint" />
            <mxPoint x="1082.9936305732485" y="259.2770098389762" as="targetPoint" />
            <Array as="points">
              <mxPoint x="1160" y="242.28728281508154" />
            </Array>
          </mxGeometry>
        </mxCell>
        <mxCell id="-j8zmsy3Rhea9B3Lr2TH-89" value="" style="endArrow=none;html=1;fontSize=16;exitX=0.5;exitY=1;exitDx=0;exitDy=0;entryX=0.5;entryY=0;entryDx=0;entryDy=0;" parent="fLZkWp-U1goKN38Um39o-15" source="-j8zmsy3Rhea9B3Lr2TH-86" target="-j8zmsy3Rhea9B3Lr2TH-81" edge="1">
          <mxGeometry x="-10" y="47.13501294602127" width="50" height="57.39772643207655" as="geometry">
            <mxPoint x="1192.2929936305734" y="235.7056768508701" as="sourcePoint" />
            <mxPoint x="1241.974522292994" y="176.77734438060483" as="targetPoint" />
            <Array as="points" />
          </mxGeometry>
        </mxCell>
        <mxCell id="-j8zmsy3Rhea9B3Lr2TH-90" value="" style="endArrow=none;html=1;fontSize=16;entryX=0.5;entryY=1;entryDx=0;entryDy=0;" parent="fLZkWp-U1goKN38Um39o-15" source="-j8zmsy3Rhea9B3Lr2TH-86" target="-j8zmsy3Rhea9B3Lr2TH-87" edge="1">
          <mxGeometry x="-10" y="47.13501294602127" width="50" height="57.39772643207655" as="geometry">
            <mxPoint x="1048.216560509554" y="153.20601139249874" as="sourcePoint" />
            <mxPoint x="1092.9299363057328" y="106.06334541628654" as="targetPoint" />
          </mxGeometry>
        </mxCell>
        <mxCell id="-j8zmsy3Rhea9B3Lr2TH-91" value="&lt;font style=&quot;font-size: 19px&quot;&gt;View&lt;br&gt;&lt;b&gt;ListinoPrezziView&lt;/b&gt;&lt;/font&gt;" style="rounded=0;whiteSpace=wrap;html=1;fillColor=#d5e8d4;strokeColor=#82b366;" parent="fLZkWp-U1goKN38Um39o-15" vertex="1">
          <mxGeometry x="1241.974522292994" y="730.7036696010982" width="168.91719745222932" height="70.71399896431831" as="geometry" />
        </mxCell>
        <mxCell id="-j8zmsy3Rhea9B3Lr2TH-92" value="&lt;font style=&quot;font-size: 19px&quot;&gt;View&lt;br&gt;&lt;b&gt;PrenotaOmbrelloneView&lt;/b&gt;&lt;/font&gt;" style="rounded=0;whiteSpace=wrap;html=1;fillColor=#d5e8d4;strokeColor=#82b366;" parent="fLZkWp-U1goKN38Um39o-15" vertex="1">
          <mxGeometry x="1251.91" y="648.2040041427268" width="238.09" height="70.71399896431831" as="geometry" />
        </mxCell>
        <mxCell id="-j8zmsy3Rhea9B3Lr2TH-93" value="&lt;font style=&quot;font-size: 19px&quot;&gt;View&lt;br&gt;&lt;b&gt;ListaPrenotazioniView&lt;/b&gt;&lt;/font&gt;" style="rounded=0;whiteSpace=wrap;html=1;fillColor=#d5e8d4;strokeColor=#82b366;" parent="fLZkWp-U1goKN38Um39o-15" vertex="1">
          <mxGeometry x="1282.963439490446" y="540.751633746784" width="188.78980891719746" height="70.71399896431831" as="geometry" />
        </mxCell>
        <mxCell id="-j8zmsy3Rhea9B3Lr2TH-95" value="&lt;font style=&quot;font-size: 19px&quot;&gt;Controller&lt;br&gt;&lt;b&gt;OmbrelloneController&lt;/b&gt;&lt;/font&gt;" style="rounded=0;whiteSpace=wrap;html=1;fillColor=#fff2cc;strokeColor=#d6b656;fontSize=17;" parent="fLZkWp-U1goKN38Um39o-15" vertex="1">
          <mxGeometry x="1013.43949044586" y="483.2046732259841" width="211.14649681528664" height="70.71399896431831" as="geometry" />
        </mxCell>
        <mxCell id="-j8zmsy3Rhea9B3Lr2TH-96" value="&lt;font style=&quot;font-size: 19px&quot;&gt;Model&lt;br&gt;&lt;b&gt;OmbrelloneModel&lt;/b&gt;&lt;/font&gt;" style="rounded=0;whiteSpace=wrap;html=1;fillColor=#f8cecc;strokeColor=#b85450;fontSize=16;" parent="fLZkWp-U1goKN38Um39o-15" vertex="1">
          <mxGeometry x="1003.503184713376" y="406.59784101463924" width="183.82165605095543" height="58.928332470265254" as="geometry" />
        </mxCell>
        <mxCell id="-j8zmsy3Rhea9B3Lr2TH-98" value="" style="endArrow=none;html=1;fontSize=16;entryX=0.5;entryY=1;entryDx=0;entryDy=0;exitX=0.5;exitY=0;exitDx=0;exitDy=0;" parent="fLZkWp-U1goKN38Um39o-15" source="-j8zmsy3Rhea9B3Lr2TH-95" target="-j8zmsy3Rhea9B3Lr2TH-96" edge="1">
          <mxGeometry x="-10" y="47.13501294602127" width="50" height="57.39772643207655" as="geometry">
            <mxPoint x="1172.4203821656051" y="883.9173340237878" as="sourcePoint" />
            <mxPoint x="1222.1019108280257" y="824.9890015535226" as="targetPoint" />
            <Array as="points" />
          </mxGeometry>
        </mxCell>
        <mxCell id="-j8zmsy3Rhea9B3Lr2TH-106" value="&lt;font style=&quot;font-size: 19px&quot;&gt;View&lt;br&gt;&lt;b&gt;ComingSoonView&lt;/b&gt;&lt;/font&gt;" style="rounded=0;whiteSpace=wrap;html=1;fillColor=#d5e8d4;strokeColor=#82b366;" parent="fLZkWp-U1goKN38Um39o-15" vertex="1">
          <mxGeometry x="1003.503184713376" y="742.4893360951511" width="168.91719745222932" height="70.71399896431831" as="geometry" />
        </mxCell>
        <mxCell id="-j8zmsy3Rhea9B3Lr2TH-75" style="edgeStyle=orthogonalEdgeStyle;rounded=0;orthogonalLoop=1;jettySize=auto;html=1;exitX=0;exitY=0.25;exitDx=0;exitDy=0;entryX=1;entryY=0.5;entryDx=0;entryDy=0;fontSize=16;" parent="fLZkWp-U1goKN38Um39o-15" source="-j8zmsy3Rhea9B3Lr2TH-34" target="-j8zmsy3Rhea9B3Lr2TH-57" edge="1">
          <mxGeometry x="-10" y="47.13501294602127" as="geometry" />
        </mxCell>
        <mxCell id="-j8zmsy3Rhea9B3Lr2TH-108" value="" style="endArrow=none;html=1;fontSize=16;entryX=0.5;entryY=1;entryDx=0;entryDy=0;exitX=0.5;exitY=0;exitDx=0;exitDy=0;" parent="fLZkWp-U1goKN38Um39o-15" source="-j8zmsy3Rhea9B3Lr2TH-12" target="-j8zmsy3Rhea9B3Lr2TH-17" edge="1">
          <mxGeometry x="-10" y="47.13501294602127" width="50" height="57.39772643207655" as="geometry">
            <mxPoint x="675.6050955414014" y="353.56234179140057" as="sourcePoint" />
            <mxPoint x="725.2866242038217" y="294.63400932113535" as="targetPoint" />
          </mxGeometry>
        </mxCell>
        <mxCell id="-j8zmsy3Rhea9B3Lr2TH-85" value="" style="edgeStyle=orthogonalEdgeStyle;rounded=0;orthogonalLoop=1;jettySize=auto;html=1;fontSize=16;" parent="fLZkWp-U1goKN38Um39o-15" source="-j8zmsy3Rhea9B3Lr2TH-37" target="-j8zmsy3Rhea9B3Lr2TH-81" edge="1">
          <mxGeometry x="-10" y="47.13501294602127" as="geometry">
            <Array as="points">
              <mxPoint x="1152" y="342.15932680689474" />
              <mxPoint x="1152" y="283.61364584617667" />
            </Array>
          </mxGeometry>
        </mxCell>
        <mxCell id="-j8zmsy3Rhea9B3Lr2TH-110" value="&lt;font style=&quot;font-size: 19px&quot;&gt;Controller&lt;br&gt;&lt;b&gt;BarController&lt;/b&gt;&lt;/font&gt;" style="rounded=0;whiteSpace=wrap;html=1;fillColor=#fff2cc;strokeColor=#d6b656;fontSize=17;" parent="fLZkWp-U1goKN38Um39o-15" vertex="1">
          <mxGeometry x="546.4331210191084" y="730.7036696010982" width="129.171974522293" height="70.71399896431831" as="geometry" />
        </mxCell>
        <mxCell id="-j8zmsy3Rhea9B3Lr2TH-111" value="&lt;font style=&quot;font-size: 19px&quot;&gt;Model&lt;br&gt;&lt;b&gt;BarModel&lt;/b&gt;&lt;/font&gt;" style="rounded=0;whiteSpace=wrap;html=1;fillColor=#f8cecc;strokeColor=#b85450;fontSize=16;" parent="fLZkWp-U1goKN38Um39o-15" vertex="1">
          <mxGeometry x="715.3503184713376" y="736.5965028481247" width="99.36305732484077" height="58.928332470265254" as="geometry" />
        </mxCell>
        <mxCell id="-j8zmsy3Rhea9B3Lr2TH-112" value="" style="endArrow=none;html=1;fontSize=16;exitX=1;exitY=0.5;exitDx=0;exitDy=0;entryX=0.5;entryY=1;entryDx=0;entryDy=0;" parent="fLZkWp-U1goKN38Um39o-15" source="-j8zmsy3Rhea9B3Lr2TH-35" target="-j8zmsy3Rhea9B3Lr2TH-110" edge="1">
          <mxGeometry x="-10" y="47.13501294602127" width="50" height="57.39772643207655" as="geometry">
            <mxPoint x="496.751592356688" y="942.8456664940531" as="sourcePoint" />
            <mxPoint x="546.4331210191084" y="883.9173340237878" as="targetPoint" />
            <Array as="points">
              <mxPoint x="530" y="816.2645471358471" />
            </Array>
          </mxGeometry>
        </mxCell>
        <mxCell id="-j8zmsy3Rhea9B3Lr2TH-113" value="" style="endArrow=none;html=1;fontSize=16;exitX=1;exitY=0.5;exitDx=0;exitDy=0;entryX=0;entryY=0.5;entryDx=0;entryDy=0;" parent="fLZkWp-U1goKN38Um39o-15" source="-j8zmsy3Rhea9B3Lr2TH-110" target="-j8zmsy3Rhea9B3Lr2TH-111" edge="1">
          <mxGeometry x="-10" y="47.13501294602127" width="50" height="57.39772643207655" as="geometry">
            <mxPoint x="520.5987261146497" y="801.4176685654165" as="sourcePoint" />
            <mxPoint x="561.3375796178344" y="801.4176685654165" as="targetPoint" />
          </mxGeometry>
        </mxCell>
        <mxCell id="-j8zmsy3Rhea9B3Lr2TH-114" value="&lt;font style=&quot;font-size: 19px&quot;&gt;View&lt;br&gt;&lt;b&gt;AggiornaListinoView&lt;br&gt;&lt;/b&gt;&lt;/font&gt;" style="rounded=0;whiteSpace=wrap;html=1;fillColor=#d5e8d4;strokeColor=#82b366;" parent="fLZkWp-U1goKN38Um39o-15" vertex="1">
          <mxGeometry x="368.57" y="860.3460010356816" width="201.43" height="70.71399896431831" as="geometry" />
        </mxCell>
        <mxCell id="-j8zmsy3Rhea9B3Lr2TH-116" value="" style="endArrow=none;html=1;fontSize=16;exitX=1;exitY=0.5;exitDx=0;exitDy=0;entryX=0.5;entryY=1;entryDx=0;entryDy=0;" parent="fLZkWp-U1goKN38Um39o-15" source="-j8zmsy3Rhea9B3Lr2TH-114" target="-j8zmsy3Rhea9B3Lr2TH-110" edge="1">
          <mxGeometry x="-10" y="47.13501294602127" width="50" height="57.39772643207655" as="geometry">
            <mxPoint x="596.1146496815287" y="919.2743335059469" as="sourcePoint" />
            <mxPoint x="645.7961783439491" y="860.3460010356816" as="targetPoint" />
            <Array as="points">
              <mxPoint x="576.2420382165606" y="872.131667529735" />
            </Array>
          </mxGeometry>
        </mxCell>
        <mxCell id="-j8zmsy3Rhea9B3Lr2TH-117" value="&lt;font style=&quot;font-size: 19px&quot;&gt;View&lt;br&gt;&lt;b&gt;PrenotaRistoranteView&lt;/b&gt;&lt;/font&gt;" style="rounded=0;whiteSpace=wrap;html=1;fillColor=#d5e8d4;strokeColor=#82b366;" parent="fLZkWp-U1goKN38Um39o-15" vertex="1">
          <mxGeometry x="130" y="730.7074961161937" width="217.71" height="70.71399896431831" as="geometry" />
        </mxCell>
        <mxCell id="-j8zmsy3Rhea9B3Lr2TH-118" value="&lt;font style=&quot;font-size: 19px&quot;&gt;View&lt;br&gt;&lt;b&gt;OrdinazioniRistoranteView&lt;/b&gt;&lt;/font&gt;" style="rounded=0;whiteSpace=wrap;html=1;fillColor=#d5e8d4;strokeColor=#82b366;" parent="fLZkWp-U1goKN38Um39o-15" vertex="1">
          <mxGeometry x="30" y="636.4145111335785" width="250" height="70.71399896431831" as="geometry" />
        </mxCell>
        <mxCell id="-j8zmsy3Rhea9B3Lr2TH-119" value="&lt;font style=&quot;font-size: 19px&quot;&gt;View&lt;br&gt;&lt;b&gt;AggiornaMenuView&lt;/b&gt;&lt;/font&gt;" style="rounded=0;whiteSpace=wrap;html=1;fillColor=#d5e8d4;strokeColor=#82b366;" parent="fLZkWp-U1goKN38Um39o-15" vertex="1">
          <mxGeometry x="100" y="530.3435126871009" width="178.15" height="70.71399896431831" as="geometry" />
        </mxCell>
        <mxCell id="-j8zmsy3Rhea9B3Lr2TH-126" value="&lt;font style=&quot;font-size: 19px&quot;&gt;Controller&lt;br&gt;&lt;b&gt;RistoranteController&lt;/b&gt;&lt;/font&gt;" style="rounded=0;whiteSpace=wrap;html=1;fillColor=#fff2cc;strokeColor=#d6b656;fontSize=17;" parent="fLZkWp-U1goKN38Um39o-15" vertex="1">
          <mxGeometry y="412.4945007767613" width="193.69" height="70.71399896431831" as="geometry" />
        </mxCell>
        <mxCell id="-j8zmsy3Rhea9B3Lr2TH-128" value="&lt;font style=&quot;font-size: 19px&quot;&gt;Model&lt;br&gt;&lt;b&gt;RistoranteModel&lt;/b&gt;&lt;/font&gt;" style="rounded=0;whiteSpace=wrap;html=1;fillColor=#f8cecc;strokeColor=#b85450;fontSize=16;" parent="fLZkWp-U1goKN38Um39o-15" vertex="1">
          <mxGeometry x="60" y="282.84451631198687" width="158.54" height="58.92450595516979" as="geometry" />
        </mxCell>
        <mxCell id="-j8zmsy3Rhea9B3Lr2TH-129" value="" style="endArrow=none;html=1;fontSize=16;entryX=0.5;entryY=1;entryDx=0;entryDy=0;exitX=0.5;exitY=0;exitDx=0;exitDy=0;" parent="fLZkWp-U1goKN38Um39o-15" source="-j8zmsy3Rhea9B3Lr2TH-126" target="-j8zmsy3Rhea9B3Lr2TH-128" edge="1">
          <mxGeometry x="-10" y="47.13501294602127" width="50" height="57.39772643207655" as="geometry">
            <mxPoint x="645.7961783439491" y="612.8470046605676" as="sourcePoint" />
            <mxPoint x="685.5414012738854" y="565.7043386843557" as="targetPoint" />
          </mxGeometry>
        </mxCell>
        <mxCell id="-j8zmsy3Rhea9B3Lr2TH-130" value="" style="endArrow=none;html=1;fontSize=16;entryX=0.5;entryY=1;entryDx=0;entryDy=0;exitX=0.5;exitY=0;exitDx=0;exitDy=0;" parent="fLZkWp-U1goKN38Um39o-15" source="-j8zmsy3Rhea9B3Lr2TH-119" target="-j8zmsy3Rhea9B3Lr2TH-126" edge="1">
          <mxGeometry x="-10" y="47.13501294602127" width="50" height="57.39772643207655" as="geometry">
            <mxPoint x="-10" y="601.0613381665147" as="sourcePoint" />
            <mxPoint x="39.68152866242039" y="542.1330056962494" as="targetPoint" />
          </mxGeometry>
        </mxCell>
        <mxCell id="-j8zmsy3Rhea9B3Lr2TH-131" value="" style="endArrow=none;html=1;fontSize=16;exitX=0.5;exitY=1;exitDx=0;exitDy=0;entryX=0.5;entryY=0;entryDx=0;entryDy=0;" parent="fLZkWp-U1goKN38Um39o-15" source="-j8zmsy3Rhea9B3Lr2TH-126" target="-j8zmsy3Rhea9B3Lr2TH-33" edge="1">
          <mxGeometry x="-10" y="47.13501294602127" width="50" height="57.39772643207655" as="geometry">
            <mxPoint x="198.66242038216564" y="530.3473392021964" as="sourcePoint" />
            <mxPoint x="248.343949044586" y="471.41900673193106" as="targetPoint" />
            <Array as="points">
              <mxPoint x="327.83439490445863" y="518.5616727081433" />
            </Array>
          </mxGeometry>
        </mxCell>
        <mxCell id="-j8zmsy3Rhea9B3Lr2TH-132" value="" style="endArrow=none;html=1;fontSize=16;entryX=0.5;entryY=1;entryDx=0;entryDy=0;exitX=0.25;exitY=0;exitDx=0;exitDy=0;" parent="fLZkWp-U1goKN38Um39o-15" source="-j8zmsy3Rhea9B3Lr2TH-118" target="-j8zmsy3Rhea9B3Lr2TH-126" edge="1">
          <mxGeometry x="-10" y="47.13501294602127" width="50" height="57.39772643207655" as="geometry">
            <mxPoint x="19.80891719745223" y="601.0613381665147" as="sourcePoint" />
            <mxPoint x="69.49044585987261" y="542.1330056962494" as="targetPoint" />
            <Array as="points">
              <mxPoint x="69.49044585987261" y="577.4900051784086" />
            </Array>
          </mxGeometry>
        </mxCell>
        <mxCell id="-j8zmsy3Rhea9B3Lr2TH-133" value="" style="endArrow=none;html=1;fontSize=16;entryX=0.5;entryY=1;entryDx=0;entryDy=0;exitX=0;exitY=0.5;exitDx=0;exitDy=0;" parent="fLZkWp-U1goKN38Um39o-15" source="-j8zmsy3Rhea9B3Lr2TH-117" target="-j8zmsy3Rhea9B3Lr2TH-126" edge="1">
          <mxGeometry x="-10" y="47.13501294602127" width="50" height="57.39772643207655" as="geometry">
            <mxPoint x="-39.80891719745223" y="659.9896706367799" as="sourcePoint" />
            <mxPoint x="9.872611464968145" y="601.0613381665147" as="targetPoint" />
            <Array as="points">
              <mxPoint x="90" y="758.8668207037704" />
              <mxPoint x="20" y="747.3872754173551" />
              <mxPoint x="20" y="575.1940961211254" />
            </Array>
          </mxGeometry>
        </mxCell>
        <mxCell id="-j8zmsy3Rhea9B3Lr2TH-142" value="" style="endArrow=none;html=1;fontSize=16;exitX=1;exitY=0.5;exitDx=0;exitDy=0;entryX=0.453;entryY=0.002;entryDx=0;entryDy=0;entryPerimeter=0;" parent="fLZkWp-U1goKN38Um39o-15" source="-j8zmsy3Rhea9B3Lr2TH-95" target="-j8zmsy3Rhea9B3Lr2TH-93" edge="1">
          <mxGeometry x="-10" y="47.13501294602127" width="50" height="57.39772643207655" as="geometry">
            <mxPoint x="1241.974522292994" y="506.7760062140903" as="sourcePoint" />
            <mxPoint x="1291.656050955414" y="447.847673743825" as="targetPoint" />
            <Array as="points">
              <mxPoint x="1301.5923566878982" y="483.2046732259841" />
            </Array>
          </mxGeometry>
        </mxCell>
        <mxCell id="-j8zmsy3Rhea9B3Lr2TH-143" value="" style="endArrow=none;html=1;fontSize=16;exitX=1;exitY=0.5;exitDx=0;exitDy=0;entryX=1;entryY=0.5;entryDx=0;entryDy=0;" parent="fLZkWp-U1goKN38Um39o-15" source="-j8zmsy3Rhea9B3Lr2TH-95" target="-j8zmsy3Rhea9B3Lr2TH-92" edge="1">
          <mxGeometry x="-10" y="47.13501294602127" width="50" height="57.39772643207655" as="geometry">
            <mxPoint x="1234.5222929936306" y="530.3473392021964" as="sourcePoint" />
            <mxPoint x="1490.3821656050957" y="659.9896706367799" as="targetPoint" />
            <Array as="points">
              <mxPoint x="1470" y="494.8372791162183" />
              <mxPoint x="1520.191082802548" y="577.4900051784086" />
            </Array>
          </mxGeometry>
        </mxCell>
        <mxCell id="-j8zmsy3Rhea9B3Lr2TH-144" value="" style="endArrow=none;html=1;fontSize=16;exitX=1;exitY=0.5;exitDx=0;exitDy=0;entryX=1;entryY=0.5;entryDx=0;entryDy=0;" parent="fLZkWp-U1goKN38Um39o-15" source="-j8zmsy3Rhea9B3Lr2TH-95" target="-j8zmsy3Rhea9B3Lr2TH-91" edge="1">
          <mxGeometry x="-10" y="47.13501294602127" width="50" height="57.39772643207655" as="geometry">
            <mxPoint x="1234.5222929936306" y="530.3473392021964" as="sourcePoint" />
            <mxPoint x="1470.5095541401274" y="671.775337130833" as="targetPoint" />
            <Array as="points">
              <mxPoint x="1530" y="471.87818854338775" />
              <mxPoint x="1520" y="678.5100036988633" />
              <mxPoint x="1510" y="747.3872754173551" />
            </Array>
          </mxGeometry>
        </mxCell>
        <mxCell id="-j8zmsy3Rhea9B3Lr2TH-145" value="" style="endArrow=none;html=1;fontSize=16;exitX=1;exitY=0.5;exitDx=0;exitDy=0;entryX=0.5;entryY=0;entryDx=0;entryDy=0;" parent="fLZkWp-U1goKN38Um39o-15" source="-j8zmsy3Rhea9B3Lr2TH-95" target="-j8zmsy3Rhea9B3Lr2TH-31" edge="1">
          <mxGeometry x="-10" y="47.13501294602127" width="50" height="57.39772643207655" as="geometry">
            <mxPoint x="1222.1019108280257" y="612.8470046605676" as="sourcePoint" />
            <mxPoint x="1271.783439490446" y="553.9186721903025" as="targetPoint" />
            <Array as="points">
              <mxPoint x="1251.910828025478" y="530.3473392021964" />
              <mxPoint x="1251.910828025478" y="565.7043386843557" />
              <mxPoint x="1225.0828025477708" y="577.4900051784086" />
            </Array>
          </mxGeometry>
        </mxCell>
        <mxCell id="-j8zmsy3Rhea9B3Lr2TH-138" style="edgeStyle=orthogonalEdgeStyle;rounded=0;orthogonalLoop=1;jettySize=auto;html=1;exitX=1;exitY=1;exitDx=0;exitDy=0;entryX=0;entryY=0.75;entryDx=0;entryDy=0;fontSize=16;" parent="fLZkWp-U1goKN38Um39o-15" source="-j8zmsy3Rhea9B3Lr2TH-31" target="-j8zmsy3Rhea9B3Lr2TH-91" edge="1">
          <mxGeometry x="-10" y="47.13501294602127" as="geometry" />
        </mxCell>
        <mxCell id="-j8zmsy3Rhea9B3Lr2TH-139" style="edgeStyle=orthogonalEdgeStyle;rounded=0;orthogonalLoop=1;jettySize=auto;html=1;exitX=1;exitY=0.75;exitDx=0;exitDy=0;entryX=0;entryY=0.75;entryDx=0;entryDy=0;fontSize=16;" parent="fLZkWp-U1goKN38Um39o-15" source="-j8zmsy3Rhea9B3Lr2TH-31" target="-j8zmsy3Rhea9B3Lr2TH-92" edge="1">
          <mxGeometry x="-10" y="47.13501294602127" as="geometry" />
        </mxCell>
        <mxCell id="-j8zmsy3Rhea9B3Lr2TH-141" style="edgeStyle=orthogonalEdgeStyle;rounded=0;orthogonalLoop=1;jettySize=auto;html=1;exitX=1;exitY=0.5;exitDx=0;exitDy=0;entryX=0.5;entryY=1;entryDx=0;entryDy=0;fontSize=16;" parent="fLZkWp-U1goKN38Um39o-15" source="-j8zmsy3Rhea9B3Lr2TH-31" target="-j8zmsy3Rhea9B3Lr2TH-93" edge="1">
          <mxGeometry x="-10" y="47.13501294602127" as="geometry" />
        </mxCell>
        <mxCell id="-j8zmsy3Rhea9B3Lr2TH-107" style="edgeStyle=orthogonalEdgeStyle;rounded=0;orthogonalLoop=1;jettySize=auto;html=1;entryX=0;entryY=0.5;entryDx=0;entryDy=0;fontSize=16;" parent="fLZkWp-U1goKN38Um39o-15" source="-j8zmsy3Rhea9B3Lr2TH-32" target="-j8zmsy3Rhea9B3Lr2TH-106" edge="1">
          <mxGeometry x="-10" y="47.13501294602127" as="geometry" />
        </mxCell>
        <mxCell id="-j8zmsy3Rhea9B3Lr2TH-115" style="edgeStyle=orthogonalEdgeStyle;rounded=0;orthogonalLoop=1;jettySize=auto;html=1;exitX=0.5;exitY=1;exitDx=0;exitDy=0;entryX=0.5;entryY=0;entryDx=0;entryDy=0;fontSize=16;" parent="fLZkWp-U1goKN38Um39o-15" source="-j8zmsy3Rhea9B3Lr2TH-35" target="-j8zmsy3Rhea9B3Lr2TH-114" edge="1">
          <mxGeometry x="-10" y="47.13501294602127" as="geometry" />
        </mxCell>
        <mxCell id="-j8zmsy3Rhea9B3Lr2TH-127" style="edgeStyle=orthogonalEdgeStyle;rounded=0;orthogonalLoop=1;jettySize=auto;html=1;exitX=0.5;exitY=1;exitDx=0;exitDy=0;entryX=0.75;entryY=0;entryDx=0;entryDy=0;fontSize=16;" parent="fLZkWp-U1goKN38Um39o-15" source="-j8zmsy3Rhea9B3Lr2TH-33" target="-j8zmsy3Rhea9B3Lr2TH-117" edge="1">
          <mxGeometry x="-10" y="47.13501294602127" as="geometry" />
        </mxCell>
        <mxCell id="-j8zmsy3Rhea9B3Lr2TH-124" style="edgeStyle=orthogonalEdgeStyle;rounded=0;orthogonalLoop=1;jettySize=auto;html=1;exitX=0;exitY=0.5;exitDx=0;exitDy=0;entryX=1;entryY=0.5;entryDx=0;entryDy=0;fontSize=16;" parent="fLZkWp-U1goKN38Um39o-15" source="-j8zmsy3Rhea9B3Lr2TH-33" target="-j8zmsy3Rhea9B3Lr2TH-118" edge="1">
          <mxGeometry x="-10" y="47.13501294602127" as="geometry" />
        </mxCell>
        <mxCell id="-j8zmsy3Rhea9B3Lr2TH-123" style="edgeStyle=orthogonalEdgeStyle;rounded=0;orthogonalLoop=1;jettySize=auto;html=1;exitX=0;exitY=0.25;exitDx=0;exitDy=0;entryX=1;entryY=0.5;entryDx=0;entryDy=0;fontSize=16;" parent="fLZkWp-U1goKN38Um39o-15" source="-j8zmsy3Rhea9B3Lr2TH-33" target="-j8zmsy3Rhea9B3Lr2TH-119" edge="1">
          <mxGeometry x="-10" y="47.13501294602127" as="geometry" />
        </mxCell>
        <mxCell id="fLZkWp-U1goKN38Um39o-1" value="&lt;font style=&quot;font-size: 19px&quot;&gt;Model&lt;br&gt;&lt;b&gt;DipendenteModel&lt;/b&gt;&lt;/font&gt;" style="rounded=0;whiteSpace=wrap;html=1;fillColor=#f8cecc;strokeColor=#b85450;fontSize=16;" vertex="1" parent="fLZkWp-U1goKN38Um39o-15">
          <mxGeometry x="670" width="169.74" height="58.92450595516979" as="geometry" />
        </mxCell>
        <mxCell id="fLZkWp-U1goKN38Um39o-2" value="&lt;font style=&quot;font-size: 19px&quot;&gt;Controller&lt;br&gt;&lt;b&gt;DipendenteController&lt;/b&gt;&lt;/font&gt;" style="rounded=0;whiteSpace=wrap;html=1;fillColor=#fff2cc;strokeColor=#d6b656;fontSize=17;" vertex="1" parent="fLZkWp-U1goKN38Um39o-15">
          <mxGeometry x="675.61" y="78.73820111952261" width="200" height="51.8071878775923" as="geometry" />
        </mxCell>
        <mxCell id="fLZkWp-U1goKN38Um39o-3" value="" style="endArrow=none;html=1;fontSize=16;entryX=0.5;entryY=1;entryDx=0;entryDy=0;exitX=0.5;exitY=0;exitDx=0;exitDy=0;" edge="1" parent="fLZkWp-U1goKN38Um39o-15" source="-j8zmsy3Rhea9B3Lr2TH-1" target="fLZkWp-U1goKN38Um39o-2">
          <mxGeometry y="58.614558232436586" width="50" height="57.39772643207655" as="geometry">
            <mxPoint x="809.4189171974526" y="258.9670621162429" as="sourcePoint" />
            <mxPoint x="809.8089171974525" y="235.39955564323247" as="targetPoint" />
            <Array as="points" />
          </mxGeometry>
        </mxCell>
        <mxCell id="fLZkWp-U1goKN38Um39o-4" value="" style="endArrow=none;html=1;fontSize=16;entryX=0.5;entryY=1;entryDx=0;entryDy=0;exitX=0.5;exitY=0;exitDx=0;exitDy=0;" edge="1" parent="fLZkWp-U1goKN38Um39o-15" source="fLZkWp-U1goKN38Um39o-2" target="fLZkWp-U1goKN38Um39o-1">
          <mxGeometry x="10" y="70.09410351885188" width="50" height="57.39772643207655" as="geometry">
            <mxPoint x="809.8089171974525" y="176.47122317296717" as="sourcePoint" />
            <mxPoint x="809.8100000000004" y="133.3808366828595" as="targetPoint" />
            <Array as="points" />
          </mxGeometry>
        </mxCell>
        <mxCell id="fLZkWp-U1goKN38Um39o-5" value="&lt;font style=&quot;font-size: 19px&quot;&gt;Model&lt;br&gt;&lt;b&gt;ClienteModel&lt;/b&gt;&lt;/font&gt;" style="rounded=0;whiteSpace=wrap;html=1;fillColor=#f8cecc;strokeColor=#b85450;fontSize=16;" vertex="1" parent="fLZkWp-U1goKN38Um39o-15">
          <mxGeometry x="913.41" y="106.07099844647747" width="119.43" height="58.92450595516979" as="geometry" />
        </mxCell>
        <mxCell id="fLZkWp-U1goKN38Um39o-6" value="&lt;font style=&quot;font-size: 19px&quot;&gt;Model&lt;br&gt;&lt;b&gt;FornitoriModel&lt;/b&gt;&lt;/font&gt;" style="rounded=0;whiteSpace=wrap;html=1;fillColor=#f8cecc;strokeColor=#b85450;fontSize=16;" vertex="1" parent="fLZkWp-U1goKN38Um39o-15">
          <mxGeometry x="1078.14" y="58.92450595516979" width="141.86" height="58.92450595516979" as="geometry" />
        </mxCell>
        <mxCell id="fLZkWp-U1goKN38Um39o-7" value="" style="endArrow=none;html=1;exitX=0.5;exitY=1;exitDx=0;exitDy=0;entryX=0.5;entryY=0;entryDx=0;entryDy=0;" edge="1" parent="fLZkWp-U1goKN38Um39o-15" source="fLZkWp-U1goKN38Um39o-2" target="-j8zmsy3Rhea9B3Lr2TH-37">
          <mxGeometry width="50" height="50" relative="1" as="geometry">
            <mxPoint x="880" y="242.28728281508154" as="sourcePoint" />
            <mxPoint x="930" y="184.889556383005" as="targetPoint" />
            <Array as="points">
              <mxPoint x="870" y="173.41001109658967" />
              <mxPoint x="860" y="242.28728281508154" />
              <mxPoint x="890" y="311.1645545335733" />
            </Array>
          </mxGeometry>
        </mxCell>
        <mxCell id="fLZkWp-U1goKN38Um39o-8" value="&lt;font style=&quot;font-size: 19px&quot;&gt;Controller&lt;br&gt;&lt;b&gt;ClienteController&lt;/b&gt;&lt;/font&gt;" style="rounded=0;whiteSpace=wrap;html=1;fillColor=#fff2cc;strokeColor=#d6b656;fontSize=17;" vertex="1" parent="fLZkWp-U1goKN38Um39o-15">
          <mxGeometry x="883.12" y="209.68537420166206" width="180" height="65.81223312701897" as="geometry" />
        </mxCell>
        <mxCell id="fLZkWp-U1goKN38Um39o-9" value="&lt;font style=&quot;font-size: 19px&quot;&gt;Controller&lt;br&gt;&lt;b&gt;FornitoriController&lt;/b&gt;&lt;/font&gt;" style="rounded=0;whiteSpace=wrap;html=1;fillColor=#fff2cc;strokeColor=#d6b656;fontSize=17;" vertex="1" parent="fLZkWp-U1goKN38Um39o-15">
          <mxGeometry x="1070" y="150.45092052375904" width="180" height="59.234453677903005" as="geometry" />
        </mxCell>
        <mxCell id="fLZkWp-U1goKN38Um39o-10" value="" style="endArrow=none;html=1;entryX=0.5;entryY=1;entryDx=0;entryDy=0;exitX=0.5;exitY=0;exitDx=0;exitDy=0;" edge="1" parent="fLZkWp-U1goKN38Um39o-15" source="fLZkWp-U1goKN38Um39o-8" target="fLZkWp-U1goKN38Um39o-5">
          <mxGeometry width="50" height="50" relative="1" as="geometry">
            <mxPoint x="950" y="311.1645545335733" as="sourcePoint" />
            <mxPoint x="1000" y="253.76682810149683" as="targetPoint" />
          </mxGeometry>
        </mxCell>
        <mxCell id="fLZkWp-U1goKN38Um39o-11" value="" style="endArrow=none;html=1;entryX=0.5;entryY=1;entryDx=0;entryDy=0;exitX=0.5;exitY=0;exitDx=0;exitDy=0;" edge="1" parent="fLZkWp-U1goKN38Um39o-15" source="-j8zmsy3Rhea9B3Lr2TH-37" target="fLZkWp-U1goKN38Um39o-8">
          <mxGeometry width="50" height="50" relative="1" as="geometry">
            <mxPoint x="990" y="288.20546396074275" as="sourcePoint" />
            <mxPoint x="1040" y="230.80773752866622" as="targetPoint" />
          </mxGeometry>
        </mxCell>
        <mxCell id="fLZkWp-U1goKN38Um39o-12" value="" style="endArrow=none;html=1;entryX=0.5;entryY=1;entryDx=0;entryDy=0;exitX=0.5;exitY=0;exitDx=0;exitDy=0;" edge="1" parent="fLZkWp-U1goKN38Um39o-15" source="fLZkWp-U1goKN38Um39o-9" target="fLZkWp-U1goKN38Um39o-6">
          <mxGeometry width="50" height="50" relative="1" as="geometry">
            <mxPoint x="1130" y="184.889556383005" as="sourcePoint" />
            <mxPoint x="1180" y="127.49182995092843" as="targetPoint" />
          </mxGeometry>
        </mxCell>
        <mxCell id="fLZkWp-U1goKN38Um39o-13" value="" style="endArrow=none;html=1;entryX=0.5;entryY=1;entryDx=0;entryDy=0;exitX=0.5;exitY=0;exitDx=0;exitDy=0;" edge="1" parent="fLZkWp-U1goKN38Um39o-15" source="-j8zmsy3Rhea9B3Lr2TH-37" target="fLZkWp-U1goKN38Um39o-9">
          <mxGeometry width="50" height="50" relative="1" as="geometry">
            <mxPoint x="1050" y="299.6850092471581" as="sourcePoint" />
            <mxPoint x="1100" y="242.28728281508154" as="targetPoint" />
          </mxGeometry>
        </mxCell>
      </root>
    </mxGraphModel>
  </diagram>
</mxfile>
